<svg id="svg" version="1.1" xmlns="http://www.w3.org/2000/svg" xmlns:xlink="http://www.w3.org/1999/xlink" width="400" height="400" viewBox="0, 0, 400,400"><g id="svgg"><path id="path0" d="M75.467 169.613 C 74.580 169.976,73.536 170.110,71.467 170.125 C 66.961 170.159,65.349 170.779,63.842 173.056 C 62.618 174.906,57.529 174.356,53.565 171.944 C 50.760 170.238,48.263 169.821,44.539 170.436 L 42.708 170.738 41.783 172.769 C 40.328 175.962,32.768 195.463,29.615 204.159 L 29.025 205.784 23.395 205.965 C 20.299 206.064,17.748 206.173,17.727 206.206 C 17.706 206.239,14.960 210.445,11.626 215.551 L 5.564 224.835 6.690 226.084 C 7.309 226.771,7.920 227.450,8.047 227.592 C 8.188 227.750,10.612 225.519,14.251 221.882 L 20.225 215.913 26.403 216.477 L 32.580 217.040 39.968 211.348 C 48.356 204.886,49.750 203.897,50.135 204.134 C 50.980 204.657,51.567 206.614,51.752 209.526 C 51.934 212.400,51.973 212.545,52.718 213.172 C 53.144 213.530,53.727 214.261,54.013 214.796 C 54.429 215.572,54.658 215.744,55.154 215.650 C 55.596 215.566,55.692 215.615,55.487 215.820 C 55.039 216.268,55.126 217.152,55.600 216.970 C 56.170 216.752,56.097 217.007,55.333 217.915 C 54.009 219.489,54.954 220.991,58.457 222.877 C 60.555 224.007,61.094 223.404,60.815 220.233 C 60.696 218.877,60.738 218.495,60.994 218.594 C 62.200 219.056,60.232 213.798,58.179 211.072 C 56.653 209.045,56.329 207.936,56.212 204.339 L 56.119 201.432 57.193 202.046 C 58.371 202.720,59.217 202.819,60.038 202.380 C 60.467 202.150,60.756 202.216,61.485 202.713 C 62.579 203.458,62.662 204.180,61.696 204.547 C 61.309 204.695,61.067 204.890,61.159 204.981 C 61.250 205.072,61.120 205.297,60.870 205.480 C 59.448 206.519,61.503 212.000,63.314 212.000 C 63.833 212.000,65.409 208.391,65.191 207.704 C 65.069 207.319,65.106 207.193,65.305 207.316 C 65.607 207.502,65.724 207.020,65.635 205.953 C 65.608 205.634,65.709 205.297,65.860 205.204 C 66.010 205.111,66.133 205.169,66.133 205.333 C 66.133 205.497,66.253 205.557,66.400 205.467 C 66.798 205.221,66.722 203.950,66.231 202.634 C 65.991 201.992,65.781 201.108,65.764 200.670 C 65.741 200.064,65.543 199.784,64.933 199.493 C 64.238 199.162,60.933 196.909,59.714 195.935 C 58.476 194.947,57.791 193.112,58.239 191.991 C 58.474 191.403,58.667 190.681,58.667 190.386 C 58.667 190.091,58.850 189.410,59.074 188.873 L 59.482 187.897 60.280 188.865 C 60.719 189.397,61.553 190.043,62.134 190.299 C 62.799 190.592,63.641 191.344,64.402 192.325 C 65.838 194.173,66.410 194.447,68.090 194.089 C 69.046 193.885,69.333 193.705,69.333 193.312 C 69.333 192.979,69.519 192.800,69.862 192.800 C 70.649 192.800,70.759 191.845,70.234 189.589 C 69.977 188.486,69.757 186.412,69.740 184.933 C 69.721 183.219,69.554 181.820,69.272 181.015 C 68.938 180.058,68.916 179.795,69.183 179.897 C 69.374 179.971,69.718 179.844,69.947 179.615 C 70.175 179.387,70.498 179.200,70.663 179.200 C 70.829 179.200,70.896 179.088,70.811 178.952 C 70.727 178.815,70.786 178.625,70.942 178.528 C 71.295 178.310,70.768 177.600,70.254 177.600 C 69.670 177.600,68.267 176.251,68.267 175.689 C 68.267 174.870,69.581 173.745,71.282 173.109 C 74.187 172.022,76.189 170.742,76.815 169.571 C 77.137 168.971,77.028 168.974,75.467 169.613 M49.331 203.015 C 49.722 203.460,49.822 203.700,49.580 203.606 C 49.355 203.520,48.951 203.064,48.681 202.592 C 48.412 202.120,48.300 201.853,48.433 202.000 C 48.566 202.147,48.970 202.603,49.331 203.015 " stroke="none" fill="#747474" fill-rule="evenodd"></path><path id="path1" d="M91.812 178.852 C 85.171 180.811,84.913 191.649,91.452 194.027 C 92.358 194.357,94.054 194.512,98.133 194.639 C 102.463 194.775,103.768 194.901,104.409 195.249 C 106.390 196.323,106.515 199.213,104.635 200.446 C 103.965 200.885,103.107 200.942,95.946 201.018 L 88.000 201.102 88.000 203.630 L 88.000 206.158 97.800 206.079 C 108.753 205.991,108.638 206.010,110.571 203.957 C 113.505 200.841,113.548 194.656,110.657 191.765 C 108.933 190.041,107.983 189.813,101.600 189.590 C 94.232 189.333,93.110 188.865,93.411 186.170 C 93.689 183.686,94.448 183.494,104.067 183.478 L 111.200 183.467 111.200 180.933 L 111.200 178.400 102.200 178.422 C 94.937 178.439,92.932 178.522,91.812 178.852 M118.133 182.133 L 118.133 185.867 116.400 185.867 L 114.667 185.867 114.667 188.133 L 114.667 190.400 116.373 190.400 L 118.079 190.400 118.204 195.933 C 118.406 204.966,119.263 206.116,125.800 206.127 L 129.067 206.133 129.067 203.867 L 129.067 201.600 127.348 201.600 C 125.917 201.600,125.505 201.493,124.882 200.957 L 124.133 200.314 124.050 195.357 L 123.967 190.400 126.517 190.400 L 129.067 190.400 129.067 188.133 L 129.067 185.867 126.533 185.867 L 124.000 185.867 124.000 182.133 L 124.000 178.400 121.067 178.400 L 118.133 178.400 118.133 182.133 M177.867 192.267 L 177.867 206.133 180.800 206.133 L 183.733 206.133 183.733 202.267 L 183.733 198.400 186.370 198.400 C 190.190 198.400,190.240 198.454,190.361 202.776 L 190.455 206.133 193.361 206.133 L 196.267 206.133 196.261 203.267 C 196.248 196.205,195.259 194.214,191.604 193.889 L 189.855 193.733 193.594 190.004 C 195.651 187.952,197.333 186.182,197.333 186.070 C 197.333 185.958,195.863 185.878,194.067 185.892 L 190.800 185.918 187.333 189.668 L 183.867 193.417 183.796 185.909 L 183.725 178.400 180.796 178.400 L 177.867 178.400 177.867 192.267 M221.333 192.267 L 221.333 206.133 224.267 206.133 L 227.200 206.133 227.222 196.467 L 227.245 186.800 230.433 196.475 L 233.621 206.150 236.850 206.075 L 240.079 206.000 243.439 196.342 L 246.800 186.685 246.870 196.409 L 246.940 206.133 249.870 206.133 L 252.800 206.133 252.800 192.260 L 252.800 178.387 248.363 178.460 L 243.926 178.533 240.453 188.876 C 238.542 194.565,236.892 199.125,236.785 199.010 C 236.678 198.894,235.371 194.960,233.881 190.267 C 232.390 185.573,230.928 180.983,230.630 180.067 L 230.090 178.400 225.712 178.400 L 221.333 178.400 221.333 192.267 M306.933 182.133 L 306.933 185.867 305.200 185.867 L 303.467 185.867 303.467 188.133 L 303.467 190.400 305.162 190.400 L 306.857 190.400 307.011 195.800 C 307.274 205.004,308.105 206.116,314.733 206.127 L 318.133 206.133 318.133 203.867 L 318.133 201.600 316.282 201.600 C 314.710 201.600,314.317 201.503,313.684 200.958 L 312.938 200.317 312.840 195.358 L 312.742 190.400 315.437 190.400 L 318.133 190.400 318.133 188.133 L 318.133 185.867 315.467 185.867 L 312.800 185.867 312.800 182.133 L 312.800 178.400 309.867 178.400 L 306.933 178.400 306.933 182.133 M138.109 186.106 C 129.144 188.974,129.014 203.079,137.926 205.918 C 145.070 208.194,151.748 204.725,152.829 198.178 C 154.270 189.451,146.800 183.325,138.109 186.106 M162.063 186.157 C 153.487 188.177,153.247 203.193,161.750 205.752 C 162.670 206.029,164.505 206.133,168.442 206.133 L 173.867 206.133 173.867 203.867 L 173.867 201.600 169.725 201.600 C 163.177 201.600,161.533 200.444,161.533 195.839 C 161.533 191.533,162.919 190.567,169.267 190.445 L 173.867 190.356 173.867 188.111 L 173.867 185.867 168.467 185.893 C 165.497 185.908,162.615 186.027,162.063 186.157 M258.400 188.133 L 258.400 190.400 264.009 190.400 C 270.940 190.400,272.000 190.728,272.000 192.876 L 272.000 193.521 267.000 193.679 C 264.250 193.766,261.554 193.969,261.008 194.129 C 256.652 195.410,255.650 202.517,259.446 205.200 L 260.578 206.000 269.238 206.080 L 277.897 206.161 277.815 198.480 L 277.733 190.800 277.004 189.417 C 275.343 186.267,274.006 185.867,265.158 185.867 L 258.400 185.867 258.400 188.133 M285.241 186.256 C 280.735 187.862,280.536 195.168,284.933 197.547 C 285.531 197.871,286.844 198.025,290.133 198.157 C 295.670 198.380,296.597 198.815,295.667 200.755 L 295.326 201.467 288.730 201.538 L 282.133 201.609 282.133 203.871 L 282.133 206.133 289.533 206.132 C 299.022 206.130,299.949 205.816,301.186 202.188 C 303.040 196.745,300.009 193.867,292.423 193.867 C 288.698 193.867,287.733 193.487,287.733 192.022 C 287.733 190.490,288.115 190.400,294.621 190.400 L 300.533 190.400 300.533 188.133 L 300.533 185.867 293.400 185.878 C 288.059 185.887,286.009 185.982,285.241 186.256 M326.533 186.240 C 318.655 188.731,317.951 201.309,325.467 205.293 C 326.773 205.986,326.917 206.002,332.600 206.085 L 338.400 206.171 338.400 203.885 L 338.400 201.600 333.991 201.600 C 328.418 201.600,327.485 201.262,326.810 199.000 L 326.631 198.400 332.515 198.400 L 338.400 198.400 338.400 196.000 L 338.400 193.600 332.528 193.600 L 326.657 193.600 326.837 192.867 C 327.377 190.673,328.160 190.400,333.906 190.400 L 338.400 190.400 338.400 188.133 L 338.400 185.867 333.000 185.885 C 329.433 185.896,327.238 186.017,326.533 186.240 M342.667 195.982 L 342.667 206.133 345.467 206.133 L 348.267 206.133 348.267 198.267 L 348.267 190.400 349.747 190.400 C 352.354 190.400,353.333 191.394,353.333 194.040 L 353.333 195.200 356.168 195.200 L 359.003 195.200 358.881 192.447 C 358.626 186.725,357.560 186.038,348.742 185.915 L 342.667 185.831 342.667 195.982 M144.827 190.735 C 147.516 192.522,147.776 198.707,145.261 201.023 C 143.953 202.226,141.329 202.361,139.590 201.314 C 136.551 199.485,136.645 192.264,139.729 190.627 C 141.101 189.899,143.650 189.953,144.827 190.735 M272.000 200.000 L 272.000 201.600 268.000 201.600 C 263.691 201.600,262.933 201.361,262.933 200.000 C 262.933 198.639,263.691 198.400,268.000 198.400 L 272.000 198.400 272.000 200.000 M86.667 218.400 L 86.667 225.333 88.133 225.333 L 89.600 225.333 89.629 220.733 L 89.658 216.133 91.154 220.744 L 92.651 225.355 94.365 225.278 L 96.079 225.200 97.625 220.800 L 99.171 216.400 99.186 220.867 L 99.200 225.333 100.800 225.333 L 102.400 225.333 102.400 218.390 L 102.400 211.446 100.088 211.523 L 97.777 211.600 96.155 216.448 C 95.263 219.115,94.473 221.353,94.400 221.423 C 94.327 221.493,93.550 219.281,92.675 216.508 L 91.083 211.467 88.875 211.467 L 86.667 211.467 86.667 218.400 M114.933 218.400 L 114.933 225.333 116.400 225.333 L 117.867 225.333 117.867 223.467 L 117.867 221.600 119.147 221.600 C 120.797 221.600,121.067 221.908,121.067 223.787 L 121.067 225.333 122.533 225.333 L 124.000 225.333 124.000 223.187 C 124.000 220.155,123.437 219.200,121.652 219.200 C 121.003 219.200,121.107 219.039,122.933 217.200 L 124.920 215.200 123.155 215.200 L 121.390 215.200 119.633 217.000 L 117.876 218.800 117.871 215.133 L 117.867 211.467 116.400 211.467 L 114.933 211.467 114.933 218.400 M144.267 213.333 L 144.267 215.200 143.333 215.200 C 142.405 215.200,142.400 215.206,142.400 216.400 C 142.400 217.588,142.409 217.600,143.311 217.600 L 144.222 217.600 144.311 220.824 C 144.425 224.952,144.728 225.333,147.897 225.333 L 149.897 225.333 149.815 224.200 C 149.737 223.118,149.691 223.063,148.801 222.978 C 147.332 222.839,147.200 222.591,147.200 219.967 L 147.200 217.600 148.533 217.600 L 149.867 217.600 149.867 216.400 L 149.867 215.200 148.533 215.200 L 147.200 215.200 147.200 213.333 L 147.200 211.467 145.733 211.467 L 144.267 211.467 144.267 213.333 M150.133 218.400 L 150.133 225.333 151.733 225.333 L 153.333 225.333 153.333 221.467 L 153.333 217.600 154.684 217.600 C 157.055 217.600,157.067 217.621,157.067 221.743 L 157.067 225.333 158.667 225.333 L 160.267 225.333 160.265 221.933 C 160.263 216.120,159.777 215.386,155.846 215.241 L 153.333 215.149 153.333 213.308 L 153.333 211.467 151.733 211.467 L 150.133 211.467 150.133 218.400 M190.667 213.333 L 190.667 215.200 189.867 215.200 C 189.096 215.200,189.067 215.244,189.067 216.400 C 189.067 217.556,189.096 217.600,189.867 217.600 L 190.667 217.600 190.668 219.933 C 190.671 224.320,191.378 225.333,194.436 225.333 L 196.267 225.333 196.267 224.149 L 196.267 222.964 195.133 222.882 L 194.000 222.800 193.924 220.200 L 193.847 217.600 195.057 217.600 L 196.267 217.600 196.267 216.400 L 196.267 215.200 195.067 215.200 L 193.867 215.200 193.867 213.333 L 193.867 211.467 192.267 211.467 L 190.667 211.467 190.667 213.333 M217.067 218.400 L 217.067 225.333 218.533 225.333 L 220.000 225.333 220.000 223.467 L 220.000 221.600 221.280 221.600 C 222.930 221.600,223.200 221.908,223.200 223.787 L 223.200 225.333 224.800 225.333 L 226.400 225.333 226.395 224.467 C 226.372 220.865,225.587 219.200,223.910 219.200 C 223.084 219.200,223.089 219.191,225.067 217.200 L 227.053 215.200 225.285 215.200 L 223.517 215.200 221.758 217.099 L 220.000 218.998 220.000 215.232 L 220.000 211.467 218.533 211.467 L 217.067 211.467 217.067 218.400 M284.267 212.933 L 284.267 214.400 285.733 214.400 L 287.200 214.400 287.200 212.933 L 287.200 211.467 285.733 211.467 L 284.267 211.467 284.267 212.933 M367.200 212.933 L 367.200 214.400 368.667 214.400 L 370.133 214.400 370.133 212.933 L 370.133 211.467 368.667 211.467 L 367.200 211.467 367.200 212.933 M200.091 215.174 C 195.134 216.440,194.797 223.748,199.621 225.340 C 202.837 226.402,206.875 224.328,206.951 221.577 C 206.964 221.124,207.076 221.277,207.331 222.095 C 208.126 224.641,209.407 225.333,213.320 225.333 L 216.267 225.333 216.267 224.133 L 216.267 222.933 214.015 222.933 C 211.045 222.933,210.267 222.380,210.267 220.267 C 210.267 218.154,211.045 217.600,214.015 217.600 L 216.267 217.600 216.267 216.400 L 216.267 215.200 213.418 215.200 C 209.273 215.200,207.244 216.470,207.182 219.103 C 207.168 219.706,207.092 219.598,206.821 218.592 C 206.095 215.892,203.145 214.394,200.091 215.174 M104.000 216.380 L 104.000 217.600 106.914 217.600 C 109.911 217.600,110.667 217.846,110.667 218.819 C 110.667 219.125,110.116 219.200,107.871 219.200 C 104.454 219.200,103.520 219.749,103.277 221.898 C 102.948 224.820,103.853 225.333,109.335 225.333 L 113.638 225.333 113.552 221.204 L 113.467 217.075 112.596 216.204 L 111.725 215.333 107.862 215.247 L 104.000 215.161 104.000 216.380 M126.725 215.643 C 123.497 217.234,123.514 223.356,126.750 224.892 C 127.434 225.216,128.429 225.333,130.507 225.333 L 133.333 225.333 133.333 224.133 L 133.333 222.933 130.952 222.933 C 129.143 222.933,128.471 222.833,128.152 222.514 C 127.373 221.735,127.724 221.600,130.533 221.600 L 133.333 221.600 133.333 220.400 L 133.333 219.200 130.533 219.200 C 128.284 219.200,127.733 219.125,127.733 218.819 C 127.733 217.895,128.513 217.600,130.952 217.600 L 133.333 217.600 133.333 216.400 L 133.333 215.200 130.467 215.206 C 128.374 215.211,127.364 215.329,126.725 215.643 M163.333 215.574 C 160.260 216.930,159.899 222.568,162.752 224.651 C 163.391 225.117,163.983 225.213,166.685 225.289 L 169.867 225.378 169.867 224.156 L 169.867 222.933 167.582 222.933 C 165.218 222.933,164.267 222.663,164.267 221.991 C 164.267 221.672,164.785 221.600,167.067 221.600 L 169.867 221.600 169.867 220.400 L 169.867 219.200 166.942 219.200 C 164.272 219.200,164.031 219.159,164.179 218.733 C 164.500 217.811,165.121 217.600,167.518 217.600 L 169.867 217.600 169.867 216.400 L 169.867 215.200 167.000 215.210 C 165.224 215.217,163.829 215.355,163.333 215.574 M180.882 215.469 C 178.908 216.264,178.877 220.038,180.836 221.086 C 181.150 221.254,182.500 221.468,183.836 221.562 C 186.032 221.717,186.267 221.785,186.267 222.267 C 186.267 222.768,186.064 222.804,182.867 222.875 L 179.467 222.949 179.467 224.141 L 179.467 225.333 183.550 225.333 C 188.004 225.333,188.464 225.186,189.083 223.557 C 190.087 220.916,188.757 219.371,185.366 219.241 C 182.888 219.145,182.175 218.838,182.495 218.003 C 182.621 217.676,183.226 217.600,185.725 217.600 L 188.800 217.600 188.800 216.400 L 188.800 215.200 185.133 215.217 C 183.117 215.226,181.204 215.340,180.882 215.469 M238.267 215.574 C 235.194 216.930,234.833 222.568,237.685 224.651 C 238.366 225.148,238.889 225.208,243.194 225.283 L 247.952 225.366 248.789 224.150 C 249.815 222.658,249.815 222.658,250.800 224.128 L 251.600 225.322 253.416 225.327 C 255.497 225.334,255.508 225.554,253.285 222.616 C 251.408 220.134,251.387 220.671,253.467 217.827 C 255.563 214.961,255.561 215.200,253.489 215.200 L 251.779 215.200 250.791 216.545 L 249.804 217.890 248.835 216.553 L 247.867 215.216 243.467 215.218 C 240.401 215.220,238.824 215.328,238.267 215.574 M255.467 222.267 L 255.467 229.333 256.933 229.333 L 258.400 229.333 258.400 227.333 L 258.400 225.333 260.426 225.333 C 263.514 225.333,265.008 224.307,265.612 221.771 C 265.797 220.996,265.814 220.985,265.839 221.627 C 265.934 224.039,268.059 225.333,271.921 225.333 L 274.964 225.333 274.882 224.200 L 274.800 223.067 272.409 222.989 C 270.112 222.914,269.067 222.550,269.067 221.825 C 269.067 221.701,270.387 221.600,272.000 221.600 L 274.933 221.600 274.933 220.400 L 274.933 219.200 272.000 219.200 C 268.903 219.200,268.490 219.005,269.554 218.041 C 269.933 217.698,270.586 217.600,272.488 217.600 L 274.933 217.600 274.933 216.400 L 274.933 215.200 272.084 215.200 C 268.018 215.200,265.920 216.469,265.849 218.970 C 265.837 219.400,265.716 219.232,265.469 218.438 C 264.653 215.825,263.369 215.200,258.809 215.200 L 255.467 215.200 255.467 222.267 M275.733 220.245 L 275.733 225.333 277.200 225.333 L 278.667 225.333 278.667 221.467 L 278.667 217.600 279.448 217.600 C 280.443 217.600,281.067 218.223,281.067 219.219 C 281.067 219.990,281.086 220.000,282.570 220.000 L 284.074 220.000 283.925 218.361 C 283.681 215.670,283.189 215.355,279.061 215.245 L 275.733 215.157 275.733 220.245 M284.267 220.267 L 284.267 225.333 285.733 225.333 L 287.200 225.333 287.200 220.267 L 287.200 215.200 285.733 215.200 L 284.267 215.200 284.267 220.267 M290.501 215.583 C 287.332 216.963,287.100 222.671,290.131 224.733 C 290.917 225.269,291.339 225.333,294.039 225.333 L 297.067 225.333 297.067 224.143 L 297.067 222.953 294.498 222.876 C 292.175 222.807,291.892 222.743,291.533 222.200 L 291.135 221.600 294.101 221.600 L 297.067 221.600 297.067 220.400 L 297.067 219.200 294.133 219.200 C 291.063 219.200,290.943 219.152,291.615 218.193 C 291.994 217.651,292.249 217.600,294.548 217.600 L 297.067 217.600 297.067 216.400 L 297.067 215.200 294.200 215.210 C 292.393 215.217,291.026 215.355,290.501 215.583 M297.867 220.267 L 297.867 225.333 299.333 225.333 L 300.800 225.333 300.800 221.467 L 300.800 217.600 302.391 217.600 C 304.455 217.600,304.533 217.760,304.533 221.982 L 304.533 225.333 306.000 225.333 L 307.467 225.333 307.467 221.574 C 307.467 215.561,307.128 215.200,301.480 215.200 L 297.867 215.200 297.867 220.267 M310.533 215.576 C 308.123 216.648,307.199 220.168,308.600 222.941 C 309.624 224.969,310.474 225.333,314.173 225.333 L 317.333 225.333 317.333 224.133 L 317.333 222.933 314.993 222.933 C 312.248 222.933,311.619 222.624,311.200 221.067 C 310.549 218.647,311.712 217.600,315.049 217.600 L 317.333 217.600 317.333 216.400 L 317.333 215.200 314.333 215.210 C 312.433 215.217,311.040 215.351,310.533 215.576 M319.792 215.643 C 316.564 217.234,316.580 223.356,319.817 224.892 C 320.501 225.216,321.495 225.333,323.574 225.333 L 326.400 225.333 326.400 224.133 L 326.400 222.933 324.019 222.933 C 322.210 222.933,321.537 222.833,321.219 222.514 C 320.440 221.735,320.791 221.600,323.600 221.600 L 326.400 221.600 326.400 220.400 L 326.400 219.200 323.600 219.200 C 321.351 219.200,320.800 219.125,320.800 218.819 C 320.800 217.895,321.580 217.600,324.019 217.600 L 326.400 217.600 326.400 216.400 L 326.400 215.200 323.533 215.206 C 321.441 215.211,320.430 215.329,319.792 215.643 M338.246 215.738 C 335.867 216.916,335.025 220.874,336.643 223.275 C 337.811 225.008,338.667 225.333,342.055 225.333 L 345.097 225.333 345.015 224.200 L 344.933 223.067 342.542 222.989 C 340.245 222.914,339.200 222.550,339.200 221.825 C 339.200 221.701,340.520 221.600,342.133 221.600 L 345.067 221.600 345.067 220.400 L 345.067 219.200 342.133 219.200 C 339.036 219.200,338.623 219.005,339.688 218.041 C 340.067 217.698,340.719 217.600,342.621 217.600 L 345.067 217.600 345.067 216.400 L 345.067 215.200 342.200 215.200 C 339.862 215.200,339.133 215.300,338.246 215.738 M345.867 216.400 L 345.867 217.600 348.918 217.600 C 351.769 217.600,351.997 217.639,352.385 218.193 C 353.053 219.146,352.933 219.200,350.146 219.200 C 348.656 219.200,347.185 219.340,346.793 219.519 C 345.168 220.259,344.770 223.211,346.113 224.554 L 346.892 225.333 351.313 225.333 L 355.733 225.333 355.733 221.725 C 355.733 215.709,355.252 215.203,349.533 215.201 L 345.867 215.200 345.867 216.400 M357.949 215.469 C 355.975 216.264,355.944 220.038,357.903 221.086 C 358.216 221.254,359.566 221.468,360.903 221.562 C 363.099 221.717,363.333 221.785,363.333 222.267 C 363.333 222.768,363.131 222.804,359.933 222.875 L 356.533 222.949 356.533 224.141 L 356.533 225.333 360.616 225.333 C 365.071 225.333,365.530 225.186,366.150 223.557 C 367.154 220.916,365.824 219.371,362.433 219.241 C 359.954 219.145,359.242 218.838,359.562 218.003 C 359.688 217.676,360.293 217.600,362.792 217.600 L 365.867 217.600 365.867 216.400 L 365.867 215.200 362.200 215.217 C 360.183 215.226,358.270 215.340,357.949 215.469 M367.200 220.267 L 367.200 225.333 368.667 225.333 L 370.133 225.333 370.133 220.267 L 370.133 215.200 368.667 215.200 L 367.200 215.200 367.200 220.267 M373.434 215.583 C 370.265 216.963,370.034 222.671,373.064 224.733 C 373.850 225.269,374.272 225.333,376.973 225.333 L 380.000 225.333 380.000 224.143 L 380.000 222.953 377.432 222.876 C 375.108 222.807,374.826 222.743,374.466 222.200 L 374.068 221.600 377.034 221.600 L 380.000 221.600 380.000 220.400 L 380.000 219.200 377.067 219.200 C 373.996 219.200,373.876 219.152,374.548 218.193 C 374.928 217.651,375.182 217.600,377.482 217.600 L 380.000 217.600 380.000 216.400 L 380.000 215.200 377.133 215.210 C 375.326 215.217,373.959 215.355,373.434 215.583 M380.800 220.267 L 380.800 225.333 382.267 225.333 L 383.733 225.333 383.733 221.467 L 383.733 217.600 384.514 217.600 C 385.510 217.600,386.133 218.223,386.133 219.219 C 386.133 219.988,386.156 220.000,387.600 220.000 L 389.067 220.000 389.067 218.653 C 389.067 215.794,388.142 215.200,383.694 215.200 L 380.800 215.200 380.800 220.267 M247.537 219.733 C 247.960 220.386,247.935 220.445,246.385 222.513 C 244.871 224.531,244.800 224.587,244.800 223.779 L 244.800 222.933 242.516 222.933 C 240.151 222.933,239.200 222.663,239.200 221.991 C 239.200 221.672,239.719 221.600,242.000 221.600 L 244.800 221.600 244.800 220.400 L 244.800 219.200 241.875 219.200 C 239.205 219.200,238.964 219.159,239.112 218.733 C 239.433 217.811,240.054 217.600,242.451 217.600 L 244.800 217.600 244.800 216.747 C 244.800 215.873,245.597 216.743,247.537 219.733 M203.286 218.101 C 203.835 218.650,204.154 220.416,203.893 221.457 C 203.251 224.016,199.868 223.690,199.367 221.022 C 198.843 218.228,201.462 216.276,203.286 218.101 M261.785 218.244 C 263.698 219.889,262.422 222.933,259.820 222.933 L 258.400 222.933 258.400 220.267 L 258.400 217.600 259.718 217.600 C 260.728 217.600,261.212 217.751,261.785 218.244 M110.667 222.267 C 110.667 223.061,106.613 223.339,106.316 222.566 C 106.054 221.883,106.759 221.600,108.720 221.600 C 110.619 221.600,110.667 221.616,110.667 222.267 M352.800 222.267 C 352.800 222.922,352.763 222.933,350.682 222.933 C 348.571 222.933,348.082 222.733,348.368 221.987 C 348.672 221.195,352.800 221.456,352.800 222.267 M389.067 223.867 L 389.067 225.333 390.400 225.333 L 391.733 225.333 391.733 223.867 L 391.733 222.400 390.400 222.400 L 389.067 222.400 389.067 223.867 " stroke="none" fill="#040404" fill-rule="evenodd"></path><path id="path2" d="" stroke="none" fill="#5c783c" fill-rule="evenodd"></path><path id="path3" d="" stroke="none" fill="#20403c" fill-rule="evenodd"></path><path id="path4" d="" stroke="none" fill="#200440" fill-rule="evenodd"></path></g></svg>